<svg xmlns="http://www.w3.org/2000/svg"  viewBox="0 0 64 64" width="64px" height="64px"><path fill="#9ba7bc" d="M27.257,54c-0.001,0-0.003,0-0.005,0c-0.521-0.002-0.954-0.406-0.992-0.927l-0.17-2.297l-0.136-0.371	c-0.041-0.111-0.062-0.229-0.062-0.347l0.002-0.771c-0.129-0.155-0.212-0.352-0.228-0.568l-0.283-4.121l0.029-2.654l-0.211-0.859	c-0.02-0.077-0.029-0.156-0.029-0.236l-0.005-2.005l-0.322-0.94c-0.036-0.104-0.055-0.214-0.055-0.324l-0.001-1.315	c-0.07-0.042-0.138-0.088-0.198-0.138c-0.022-0.019-0.045-0.038-0.068-0.058l-0.106,0.003c-0.175,0.007-0.343-0.036-0.496-0.117	l-1.49-0.78c-0.096-0.012-0.188-0.036-0.273-0.073c-0.139-0.02-0.274-0.068-0.399-0.147c-0.145-0.093-0.431-0.269-0.665-0.381l0,0	l-0.147-0.067c-0.16-0.071-0.293-0.147-0.403-0.228l-0.062,1.484c-0.002,0.055-0.009,0.108-0.02,0.161l-0.146,0.704	c-0.022,0.108-0.062,0.209-0.115,0.301l0.002,0.606c0.024,0.087,0.042,0.173,0.043,0.243l0.009,0.602	c0.002,0.141-0.025,0.28-0.081,0.409l-0.161,0.488c0.057,0.137,0.082,0.285,0.075,0.434l-0.345,6.83	c-0.019,0.357-0.224,0.663-0.517,0.825l0.004,0.365c0.002,0.154-0.032,0.306-0.099,0.444l-0.185,0.385l0.004,0.521	c0.03,0.111,0.04,0.227,0.03,0.342l-0.244,2.911c-0.043,0.519-0.477,0.916-0.996,0.916c-0.004,0-0.008,0-0.013,0	c-0.524-0.007-0.954-0.417-0.985-0.941l-0.185-3.115l-0.192-0.972c-0.013-0.061-0.019-0.123-0.02-0.186l-0.018-1.877l-0.104-0.355	c-0.027-0.093-0.041-0.188-0.041-0.284l0.003-2.155l-0.048-0.329c-0.453-0.093-0.794-0.492-0.798-0.972l-0.065-7.881	c-0.098-0.157-0.151-0.34-0.152-0.528l-0.001-0.5c-0.324-0.081-0.613-0.205-0.881-0.319c0.016,0.015-0.075,0.016-0.165,0.011	c-0.28-0.014-0.57-0.027-0.841-0.165c-0.063-0.032-0.128-0.069-0.189-0.107c-0.175-0.004-0.328-0.021-0.467-0.056	c-0.583-0.095-0.872-0.348-1.098-0.579c-0.514-0.502-0.938-0.718-1.428-0.754c-0.212-0.015-0.4-0.065-0.562-0.132	c-0.34,0.285-0.782,0.43-1.319,0.43c-0.243-0.004-0.763-0.016-1.133-0.436c-0.296-0.337-0.333-0.751-0.322-1.038	c-0.028-0.012-0.057-0.023-0.085-0.035c-0.045-0.019-0.093-0.039-0.14-0.061c-0.361,0.061-0.704-0.072-0.945-0.304	c-0.189-0.181-0.501-0.476-0.679-0.924c-0.2,0.087-0.409,0.131-0.623,0.131c-0.43,0-0.756-0.179-0.971-0.296	c-0.047-0.025-0.094-0.053-0.144-0.074c-0.713-0.313-1.048-1.055-0.833-1.844c0.008-0.061,0.018-0.125,0.031-0.194	C1.75,26.32,1.24,25.831,1.071,25.375c-0.136-0.364-0.077-0.785,0.156-1.123c0.251-0.36,0.703-0.567,1.134-0.529	c0.181,0.025,0.338,0.067,0.475,0.121c0.033-0.019,0.066-0.037,0.102-0.055c0.054-0.027,0.087-0.052,0.12-0.075	c0.078-0.055,0.155-0.107,0.259-0.164c0.187-0.104,0.403-0.159,0.625-0.159c0.583,0,1.102,0.365,1.295,0.889	c0.041-0.031,0.083-0.062,0.127-0.093c0.365-0.254,0.734-0.395,1.129-0.429c0.249-0.022,0.514-0.001,0.768,0.026	c0.077,0.008,0.151,0.017,0.222,0.021c0.423,0.021,0.668,0.06,0.876,0.143c0.018,0,0.035,0,0.053,0l0.125-0.004	c0.629-0.03,0.886-0.004,1.169,0.062c0.204-0.116,0.447-0.173,0.691-0.148c0.188,0.021,0.724,0.133,0.93,0.737	c0.222,0.026,0.473,0.089,0.713,0.259c0.05,0.035,0.122,0.096,0.207,0.177c0.043,0.04,0.123,0.116,0.161,0.138	c0.146,0.048,0.245,0.062,0.336,0.075c0.118,0.018,0.23,0.035,0.37,0.072c0.845,0.225,0.823,0.167,1.069,0.155	c0.065-0.003,0.127-0.002,0.188,0.007c0.078-0.019,0.172-0.024,0.242-0.025l0.238,0.005l-0.229-0.717	c-0.057-0.176-0.063-0.365-0.019-0.545l0.337-1.363l0.001-1.62c0-0.057,0.005-0.112,0.015-0.167	c-0.01-0.049-0.014-0.097-0.014-0.142l0.001-0.166c0-0.061,0.006-0.119,0.016-0.177c-0.019-0.071-0.028-0.142-0.027-0.208	l0.009-0.627c0.002-0.14,0.033-0.276,0.091-0.403l0.272-0.594l0.029-0.525c0.016-0.286,0.152-0.552,0.377-0.729l0.469-0.371	c0.126-0.099,0.273-0.167,0.43-0.197c0.007-0.001,0.133-0.024,0.204-0.046c0.209-0.08,0.352-0.154,0.379-0.169	c0.122-0.068,0.264-0.112,0.403-0.124c0.135-0.012,0.252-0.028,0.351-0.046c0.147-0.383,0.517-0.64,0.933-0.64l0,0	c0.056,0,0.11,0.005,0.164,0.014l0.013-0.138c0.048-0.515,0.48-0.907,0.996-0.907c0.002,0,0.004,0,0.006,0	c0.519,0.003,0.948,0.401,0.991,0.919l0.145,1.77c0.145,0.162,0.236,0.372,0.251,0.603c0.01,0.158,0.064,0.537,0.097,0.757	c0.122,0.238,0.333,0.664,0.426,0.96c0.062,0.195,0.062,0.405,0,0.601c-0.008,0.024-0.094,0.312-0.165,0.737	c-0.027,0.165-0.097,0.321-0.2,0.453c-0.01,0.013-0.063,0.075-0.09,0.106c0.017,0.304,0.056,0.539,0.06,0.559	c0.044,0.253-0.012,0.514-0.151,0.726l0.018,2.637c0.001,0.089-0.011,0.178-0.033,0.264l-0.174,0.652l0.054,0.005	c0.116,0.01,0.23,0.04,0.337,0.089l0.23,0.107l0.343-0.01c0.077-0.004,0.179,0.008,0.267,0.029l0.89,0.218	c0.238-0.048,0.491-0.005,0.702,0.12l0.143,0.085l-0.085-1.793c-0.009-0.183,0.032-0.362,0.119-0.522l0.032-0.06l-0.002-0.616	l-0.419-1.201c-0.036-0.104-0.055-0.214-0.056-0.324l-0.004-0.819c-0.095-0.139-0.156-0.302-0.171-0.479l-0.162-1.877l-0.085-0.136	c-0.101-0.159-0.154-0.343-0.154-0.531v-0.201c-0.038-0.103-0.059-0.209-0.058-0.315c0-0.04,0.006-0.101,0.015-0.168	c-0.042-0.13-0.057-0.269-0.043-0.406l0.144-1.402c0.031-0.302,0.196-0.568,0.442-0.732c0.017-0.025,0.042-0.071,0.071-0.145	c0.272-0.677,0.608-0.96,0.904-1.21c0.056-0.047,0.108-0.101,0.162-0.154c0.117-0.115,0.235-0.229,0.364-0.33	c0.194-0.196,0.467-0.474,1.023-0.603c0.037-0.053,0.078-0.103,0.122-0.147l0.091-0.266c0.043-0.128,0.111-0.243,0.198-0.342	l0.199-1.578c0.065-0.512,0.499-0.92,1.026-0.874c0.517,0.018,0.935,0.426,0.964,0.942l0.041,0.703	c0.463,0.06,0.831,0.438,0.868,0.914l0.071,0.918c0.09,0.133,0.147,0.288,0.164,0.457l0.026,0.269	c0.188,0.184,0.299,0.437,0.302,0.706v0.002l0.091,0.141c0.092,0.142,0.146,0.295,0.158,0.464c0,0,0.04,0.562,0.033,0.71	l-0.007,0.218l0.06,0.269c0.048,0.216,0.022,0.439-0.069,0.639c0,0.006,0,0.013,0,0.019l0.012,1.396	c0.001,0.072-0.007,0.144-0.021,0.213l-0.11,0.532l0.032,0.207c0.011,0.069,0.014,0.14,0.01,0.21l-0.258,4.661	c-0.012,0.222-0.096,0.423-0.228,0.582l0.179,0.597c0.028,0.092,0.043,0.188,0.043,0.284l0.012,2.88	c0.067,0.026,0.127,0.054,0.181,0.078c0.123,0.056,0.196,0.088,0.271,0.101c0.146,0.025,0.286,0.083,0.408,0.168	c0.083,0.059,0.185,0.146,0.287,0.242c0.016,0.015,0.032,0.03,0.048,0.045c0.05,0.011,0.092,0.019,0.092,0.019	c0.183,0.035,0.347,0.12,0.483,0.247l0.015,0.014c0.251,0.032,0.451,0.104,0.603,0.172c0.276,0.079,0.519,0.188,0.729,0.325	l-0.004-1.798l-0.279-1.058c-0.021-0.08-0.032-0.163-0.033-0.245l-0.027-2.653c-0.002-0.16,0.035-0.318,0.107-0.461l0.015-0.03	c-0.007-0.039-0.014-0.081-0.02-0.124l-0.059-0.002c0.003-0.104,0.007-0.231,0.011-0.374c-0.085-0.784-0.147-2.004-0.243-3.904	l-0.118-0.237c-0.121-0.246-0.137-0.531-0.042-0.789c0.001-0.004,0.055-0.146,0.099-0.278c-0.028-0.088-0.045-0.18-0.048-0.273	l-0.028-0.792c-0.006-0.16,0.026-0.318,0.095-0.463v0.001c0,0,0.103-0.229,0.146-0.502c0.035-0.219,0.037-0.479,0.037-0.495	c0.002-0.23,0.083-0.454,0.23-0.632l0.369-0.444l0.005-0.187c0.007-0.23,0.093-0.451,0.243-0.625l0.02-0.022l0.104-1.969	c0.028-0.527,0.462-0.942,0.989-0.947c0.004,0,0.007,0,0.01,0c0.523,0,0.96,0.404,0.997,0.928l0.022,0.301	c0.368,0.129,0.641,0.468,0.668,0.878l0.019,0.283c0.149-0.078,0.321-0.124,0.499-0.111c0.463,0.018,0.853,0.352,0.942,0.807	l0.056,0.284c0.078,0.079,0.144,0.171,0.191,0.272c0.139,0.098,0.19,0.153,0.227,0.192c0.034,0.037,0.066,0.076,0.095,0.118	c0.171,0.253,0.37,0.757,0.507,1.135c0.03,0.084,0.049,0.171,0.057,0.26l0.066,0.822c0.014,0.174-0.018,0.349-0.093,0.506	c-0.36,0.766-0.378,1.058-0.376,1.47c0.002,0.561-0.076,1.614-0.106,2.007l0.226,1.036c0.018,0.078,0.025,0.157,0.023,0.237	l-0.185,7.438c-0.002,0.063-0.01,0.127-0.022,0.188l-0.151,0.695c-0.04,0.183-0.128,0.344-0.248,0.472	c-0.001,0.012-0.003,0.022-0.004,0.034l-0.104,1.102c0.124,0.07,0.371,0.111,0.663,0.064c0.054-0.009,0.228-0.028,0.233-0.017	c0.003,0,0.006,0,0.009,0c0.525,0,0.944,0.202,1.211,0.547c0.123,0.003,0.271,0.015,0.466,0.059	c0.192,0.042,0.335,0.123,0.429,0.186c0.059,0.004,0.115,0.01,0.17,0.018l-0.029-1.079l0.014-0.672	c-0.161-0.149-0.272-0.353-0.308-0.584l-0.346-2.321c-0.007-0.047-0.011-0.094-0.011-0.141l-0.018-2.751	c-0.001-0.096,0.013-0.19,0.038-0.281l0.167-0.583v-0.854l-0.146-0.723c-0.013-0.063-0.02-0.128-0.02-0.192	c-0.048-0.113-0.075-0.235-0.079-0.362l-0.001-0.049c-0.044-0.156-0.062-0.32-0.034-0.458l0.297-1.524	c0.042-0.217,0.155-0.413,0.32-0.559l0.229-0.201l0.245-0.623c0.039-0.097,0.091-0.186,0.154-0.264l0.068-1.118	c0.027-0.451,0.352-0.82,0.78-0.915l0.014-0.19c0.038-0.523,0.474-0.928,0.997-0.928c0.002,0,0.003,0,0.005,0	c0.525,0.003,0.96,0.412,0.993,0.937l0.062,0.971c0.12,0.152,0.196,0.342,0.211,0.548l0.038,0.556	c0.112,0.05,0.216,0.12,0.304,0.209c0.154,0.048,0.261,0.105,0.338,0.158c0.282,0.042,0.471,0.172,0.627,0.411	c0.036,0.055,0.356,0.549,0.523,0.938c0.124,0.289,0.307,0.897,0.307,0.897c0.032,0.108,0.045,0.217,0.04,0.329l-0.032,0.712	l0.048,0.151c0.067,0.212,0.062,0.439-0.015,0.648l-0.079,0.213l0.009,0.014c0.122,0.179,0.184,0.393,0.174,0.609l-0.369,8.268	c-0.017,0.373-0.236,0.689-0.548,0.848c0.002,0.42-0.021,0.657-0.021,0.657c-0.01,0.096-0.033,0.195-0.069,0.285l-0.12,0.296	c0.37,0.056,0.707,0.183,1.005,0.378c0.023,0.006,0.083,0.017,0.14,0.031l-0.002,0.02l0.128-0.005c0.062,0,0.145,0.004,0.263,0.019	c0.021,0.003,0.043,0.006,0.063,0.01c0.113-0.074,0.249-0.135,0.411-0.165c0.55-0.1,1.092,0.269,1.32,0.731	c0.387,0.042,0.687,0.141,0.939,0.224c0.14,0.046,0.279,0.095,0.443,0.126l0.21,0.038c0.301,0.055,0.501,0.092,0.859,0.19	c0.268,0.056,0.628,0.13,0.932,0.398c0.019,0.017,0.038,0.037,0.059,0.059c0.269,0.033,0.677,0.095,1.038,0.309	c0.414,0.244,0.605,0.275,0.726,0.275c0.022-0.002,0.177-0.008,0.199-0.008c0.242,0,0.598,0.044,0.917,0.255	c0.198,0.133,0.436,0.207,0.774,0.244c0.197,0.021,0.362,0.089,0.473,0.133c0.092,0.026,0.18,0.065,0.259,0.115	c0.413,0.036,0.816,0.179,1.251,0.439c0.033,0.021,0.065,0.043,0.097,0.066c0.254,0.036,0.453,0.101,0.608,0.151	c0.053,0.018,0.104,0.035,0.156,0.048c0.299,0.072,0.543,0.277,0.669,0.547c0.197,0.038,0.382,0.096,0.556,0.171	c0.072-0.01,0.148-0.011,0.223,0.001c0.233-0.088,0.493-0.085,0.729,0.013l0.75,0.309c0.43,0.174,0.684,0.62,0.613,1.078	c-0.005,0.033-0.012,0.065-0.02,0.098c0.041,0.321-0.068,0.671-0.303,0.893c-0.081,0.111-0.387,0.497-0.934,0.497	c-0.074,0-0.157-0.009-0.231-0.025c-0.176,0.037-0.43,0.026-0.633-0.064c-0.188-0.084-0.395-0.146-0.46-0.152	c-0.091-0.005-0.257-0.014-0.44-0.09c-0.194-0.073-0.333-0.198-0.425-0.304c-0.069-0.034-0.146-0.077-0.224-0.135	c-0.118,0.038-0.246,0.059-0.38,0.059c-0.074,0-0.231-0.018-0.304-0.034c-0.183-0.043-0.38-0.089-0.586-0.19	c-0.103-0.05-0.256-0.124-0.306-0.128c-0.399,0.048-0.629-0.074-0.798-0.155c-0.448,0.215-0.939,0.222-1.509,0.007	c-0.119-0.044-0.305-0.126-0.447-0.191c-0.04,0.001-0.081,0.002-0.116,0.008c-0.165,0.054-0.328,0.062-0.484,0.028	c-0.129,0.036-0.336,0.065-0.521,0.048c-0.142-0.013-0.269-0.048-0.384-0.096c-0.032,0.25-0.146,0.488-0.324,0.674	c-0.229,0.237-0.543,0.373-0.865,0.373c-0.173,0-0.413-0.063-0.563-0.148c-0.114-0.062-0.258-0.141-0.409-0.238	c-0.41,0.112-0.964-0.021-1.409-0.293c-0.368-0.006-0.688-0.186-0.955-0.534c-0.077-0.01-0.154-0.025-0.231-0.048l-0.21-0.079	c-0.089-0.002-0.274-0.034-0.359-0.059c-0.192-0.057-0.441-0.147-0.666-0.351c-0.014-0.014-0.081-0.037-0.233-0.037	c-0.339,0-0.668-0.147-0.91-0.4h-0.05c-0.019,0-0.036,0-0.055-0.001c-0.001,0.014-0.001,0.026-0.002,0.04l-0.457,7.307	c-0.028,0.448-0.349,0.812-0.768,0.911l-0.247,3.095c-0.042,0.52-0.477,0.92-0.997,0.92c-0.003,0-0.005,0-0.008,0	c-0.524-0.004-0.956-0.412-0.99-0.936l-0.302-4.668l-0.025-2.469l-0.201-0.779c-0.021-0.084-0.032-0.171-0.031-0.257l0.01-1.369	c0-0.011,0-0.021,0.001-0.03c-0.356-0.146-0.611-0.49-0.623-0.898l-0.028-1.014c-0.129,0.026-0.256,0.039-0.381,0.039	c-0.013,0-0.032-0.001-0.056-0.002c-0.085,0.031-0.19,0.062-0.317,0.075l0,0c-0.386,0.038-0.708-0.103-0.941-0.342	c-0.156-0.038-0.276-0.069-0.396-0.102l-0.377-0.097c-0.34-0.08-0.54-0.086-0.723-0.01c-0.121,0.051-0.347,0.102-0.478,0.102	c-0.12,0-0.238-0.02-0.351-0.058l-0.003,0.012l0.01,4.812c0,0.136-0.027,0.27-0.08,0.394l-0.32,0.753v1.088	c0,0.04-0.002,0.081-0.007,0.121l-0.406,3.344c-0.062,0.513-0.513,0.856-1.023,0.879c-0.518-0.017-0.938-0.424-0.968-0.94	l-0.177-2.961c-0.312-0.155-0.532-0.469-0.553-0.839l-0.211-3.717l-0.228-0.809c-0.042-0.151-0.049-0.311-0.019-0.464l0.145-0.732	l0.009-2.155c-0.002-0.004-0.004-0.007-0.006-0.011c-0.138-0.008-0.273-0.016-0.377-0.021c-0.211,0.066-0.569,0.183-0.771,0.265	c-0.196,0.08-0.394,0.12-0.603,0.123c-0.426,0.254-0.924,0.249-1.312,0.005c-0.132,0.021-0.275,0.017-0.41-0.017	c-0.158-0.036-0.314-0.081-0.462-0.145c-0.012-0.007-0.024-0.013-0.037-0.02l-0.295,4.246c-0.031,0.442-0.347,0.8-0.758,0.901	l-0.078,0.253l-0.007,1.322l0.104,0.418c0.019,0.077,0.029,0.157,0.029,0.236l0.005,0.906c0,0.091-0.012,0.182-0.035,0.27	l-0.141,0.515l-0.017,2.24l-0.302,3.691C28.211,53.602,27.777,54,27.257,54z"/><path fill="#8d6c9f" d="M62.753,38.727l-0.75-0.307c-0.245-0.101-0.504-0.15-0.76-0.15c-0.143,0-0.286,0.015-0.426,0.046	c-0.027-0.009-0.054-0.018-0.081-0.027c-0.268-0.314-0.632-0.545-1.05-0.647l-0.082-0.027c-0.132-0.043-0.314-0.103-0.543-0.15	c-0.476-0.279-0.944-0.454-1.418-0.526c-0.061-0.027-0.123-0.051-0.187-0.072c-0.168-0.067-0.423-0.166-0.743-0.201	c-0.112-0.012-0.259-0.036-0.325-0.079c-0.417-0.278-0.927-0.425-1.474-0.425c-0.054,0-0.106,0.001-0.158,0.004	c-0.04-0.016-0.122-0.053-0.258-0.134c-0.393-0.232-0.799-0.338-1.118-0.395c-0.451-0.328-0.917-0.426-1.156-0.476	c-0.402-0.109-0.647-0.153-0.932-0.205l-0.215-0.04c-0.082-0.016-0.186-0.05-0.318-0.093c-0.173-0.057-0.389-0.128-0.649-0.186	c-0.397-0.492-0.995-0.837-1.717-0.837c-0.118,0-0.255,0.012-0.372,0.033c-0.158,0.028-0.302,0.072-0.433,0.125	c-0.015-0.001-0.03-0.001-0.044-0.002c-0.054-0.031-0.11-0.06-0.166-0.088c0.001-0.025,0.003-0.053,0.004-0.083	c0.325-0.339,0.533-0.792,0.556-1.296l0.369-8.267c0.011-0.25-0.025-0.497-0.104-0.731c0.091-0.355,0.083-0.729-0.025-1.082	l0.024-0.535c0.01-0.222-0.017-0.444-0.08-0.658c-0.045-0.152-0.203-0.673-0.347-1.009c-0.191-0.444-0.511-0.946-0.604-1.089	c-0.266-0.408-0.67-0.702-1.134-0.832c-0.004-0.002-0.008-0.004-0.012-0.006l-0.001-0.018c-0.02-0.287-0.1-0.556-0.227-0.796	l-0.045-0.716c-0.066-1.05-0.934-1.869-1.986-1.874c-0.003,0-0.007,0-0.01,0c-0.905,0-1.678,0.604-1.921,1.442	c-0.495,0.338-0.83,0.894-0.869,1.531l-0.052,0.857c-0.038,0.07-0.072,0.143-0.102,0.219l-0.157,0.399l-0.047,0.041	c-0.332,0.292-0.557,0.685-0.642,1.119l-0.184,0.943l-0.067-0.307c0.037-0.482,0.1-1.4,0.098-1.939	c-0.001-0.285-0.001-0.441,0.281-1.041c0.148-0.315,0.212-0.664,0.184-1.012l-0.066-0.822c-0.014-0.178-0.052-0.353-0.113-0.521	c-0.343-0.947-0.551-1.254-0.62-1.355c-0.057-0.083-0.119-0.162-0.188-0.236c-0.055-0.059-0.116-0.119-0.193-0.184	c-0.008-0.013-0.017-0.025-0.025-0.038l-0.008-0.041c-0.162-0.828-0.823-1.456-1.639-1.59c-0.126-0.26-0.306-0.488-0.525-0.67	c-0.174-0.937-0.994-1.633-1.966-1.633c-0.006,0-0.013,0-0.019,0c-1.056,0.01-1.922,0.839-1.978,1.893l-0.089,1.678	c-0.144,0.243-0.235,0.514-0.267,0.796l-0.157,0.189c-0.295,0.356-0.458,0.803-0.46,1.266c-0.001,0.083-0.01,0.25-0.024,0.339	c-0.018,0.111-0.062,0.228-0.076,0.261c-0.136,0.288-0.189,0.579-0.178,0.897l0.028,0.792c0.001,0.022,0.004,0.044,0.005,0.065	l-0.149-0.686c0.105-0.333,0.121-0.691,0.043-1.037l-0.032-0.143c0.001-0.029,0.002-0.056,0.003-0.079	c0.003-0.073,0.011-0.246-0.036-0.832c-0.024-0.307-0.119-0.603-0.277-0.866c-0.048-0.274-0.153-0.532-0.305-0.76	c-0.025-0.221-0.085-0.431-0.176-0.624l-0.055-0.704c-0.05-0.641-0.399-1.193-0.904-1.521l-0.004-0.076	c-0.059-1.032-0.896-1.849-1.929-1.884C27.88,9,27.857,9,27.834,9c-1.004,0-1.857,0.747-1.983,1.75l-0.167,1.327	c-0.059,0.097-0.111,0.2-0.153,0.308c-0.532,0.217-0.836,0.524-0.984,0.676c-0.17,0.137-0.306,0.271-0.407,0.372	c-0.034,0.034-0.067,0.069-0.103,0.1c-0.412,0.348-0.809,0.726-1.138,1.486c-0.35,0.325-0.579,0.771-0.629,1.263l-0.095,0.934	c-0.003-0.004-0.005-0.009-0.008-0.013l-0.124-1.516c-0.084-1.034-0.945-1.832-1.982-1.838c-0.004,0-0.008,0-0.012,0	c-0.788,0-1.478,0.458-1.802,1.133c-0.351,0.116-0.662,0.327-0.899,0.608c-0.231,0.039-0.454,0.118-0.659,0.234	c0.001,0,0.001-0.001,0.001-0.001c-0.001,0-0.071,0.035-0.192,0.083c-0.038,0.008-0.073,0.015-0.079,0.016	c-0.315,0.061-0.613,0.198-0.864,0.397l-0.468,0.371c-0.448,0.356-0.723,0.887-0.754,1.458l-0.018,0.335l-0.193,0.421	c-0.116,0.253-0.178,0.527-0.182,0.805l-0.009,0.627c-0.001,0.094,0.004,0.188,0.016,0.281c-0.002,0.036-0.003,0.071-0.003,0.108	l-0.001,0.175c0,0.051,0.001,0.102,0.005,0.152c-0.004,0.053-0.006,0.107-0.006,0.16l0,1.498l-0.308,1.245	c-0.036,0.147-0.056,0.297-0.058,0.447c-0.059-0.015-0.127-0.032-0.206-0.053c-0.182-0.048-0.328-0.073-0.482-0.095	c-0.003,0-0.005-0.001-0.007-0.001c-0.109-0.099-0.201-0.173-0.266-0.218c-0.211-0.149-0.425-0.248-0.627-0.315	c-0.415-0.573-1.047-0.81-1.483-0.857c-0.071-0.008-0.143-0.012-0.214-0.012c-0.245,0-0.482,0.042-0.706,0.119	c-0.188-0.024-0.396-0.037-0.628-0.037c-0.126,0-0.268,0.003-0.43,0.01c-0.005,0-0.009,0-0.014,0.001	c-0.291-0.085-0.602-0.119-0.98-0.138c-0.054-0.003-0.111-0.01-0.17-0.016c-0.174-0.018-0.391-0.041-0.638-0.041	c-0.108,0-0.215,0.005-0.32,0.014c-0.31,0.028-0.606,0.098-0.895,0.214c-0.423-0.366-0.975-0.585-1.566-0.585	c-0.391,0-0.776,0.099-1.113,0.287c-0.052,0.029-0.099,0.057-0.143,0.084c-0.045-0.008-0.091-0.016-0.139-0.022	c-0.092-0.013-0.215-0.021-0.308-0.021c0,0,0,0,0,0s0,0,0,0c-0.727,0-1.412,0.36-1.831,0.964c-0.421,0.606-0.523,1.371-0.273,2.046	c0.2,0.539,0.606,1.004,1.098,1.309c-0.013,1.006,0.545,1.908,1.496,2.325l0.064,0.036c0.267,0.146,0.765,0.419,1.451,0.419	c0.044,0,0.087-0.001,0.13-0.003c0.182,0.236,0.364,0.409,0.484,0.523c0.269,0.255,0.604,0.436,0.964,0.526	c0.083,0.28,0.226,0.575,0.466,0.847c0.438,0.496,1.039,0.756,1.788,0.773c0.015,0,0.079,0.001,0.094,0.001	c0.619,0,1.106-0.145,1.483-0.343c0.107,0.02,0.216,0.035,0.327,0.043c0.17,0.012,0.392,0.072,0.752,0.423	c0.35,0.359,0.821,0.749,1.643,0.893c0.12,0.028,0.246,0.048,0.378,0.061c0.009,0.005,0.018,0.009,0.027,0.014	c0.462,0.235,0.916,0.257,1.247,0.273c0.012,0.001,0.024,0.001,0.037,0.002c0.023,0.01,0.047,0.019,0.071,0.029	c0.021,0.19,0.07,0.374,0.142,0.548l0.063,7.649c0.005,0.667,0.338,1.258,0.846,1.617l-0.003,1.828c0,0.193,0.027,0.385,0.082,0.569	l0.065,0.221l0.016,1.738c0.001,0.125,0.014,0.249,0.038,0.371l0.18,0.904l0.18,3.047c0.062,1.047,0.922,1.869,1.972,1.882	c0.008,0,0.017,0,0.025,0c1.038,0,1.905-0.795,1.993-1.832l0.245-2.911c0.016-0.187,0.005-0.375-0.032-0.559v-0.159l0.086-0.179	c0.117-0.244,0.183-0.509,0.195-0.779c0.299-0.33,0.489-0.762,0.513-1.24l0.345-6.83c0.008-0.162-0.003-0.325-0.034-0.483	l0.041-0.095c0.111-0.258,0.166-0.537,0.162-0.818l-0.009-0.602c-0.002-0.131-0.017-0.262-0.044-0.389l0-0.224	c0.04-0.102,0.071-0.209,0.094-0.32l0.146-0.705c0.013-0.064,0.023-0.128,0.03-0.193c0.135,0.061,0.275,0.107,0.417,0.136	c0.084,0.029,0.17,0.053,0.258,0.071l1.306,0.696c0.109,0.058,0.223,0.106,0.34,0.143l0,0.6c0,0.221,0.037,0.441,0.109,0.65	l0.269,0.783l0.003,1.838c0,0.16,0.02,0.32,0.058,0.475l0.181,0.733l-0.03,2.447c-0.001,0.054,0.001,0.108,0.005,0.161l0.283,4.121	c0.02,0.286,0.098,0.553,0.224,0.792l-0.001,0.476c-0.001,0.237,0.041,0.471,0.122,0.693l0.088,0.241l0.16,2.157	c0.077,1.041,0.942,1.848,1.986,1.852c0.003,0,0.006,0,0.009,0c1.04,0,1.908-0.798,1.993-1.836l0.298-3.617	c0.004-0.05,0.006-0.1,0.007-0.149l0.016-2.109l0.106-0.388c0.048-0.176,0.072-0.357,0.071-0.539l-0.005-0.906	c-0.001-0.159-0.021-0.318-0.059-0.472l-0.074-0.298l0.004-0.796c0.471-0.336,0.792-0.871,0.835-1.49l0.212-3.042	c0.205,0.062,0.42,0.094,0.64,0.094c0.242,0,0.576-0.041,0.941-0.207c0.162-0.018,0.321-0.051,0.478-0.1l-0.003,0.815l-0.126,0.638	c-0.061,0.308-0.048,0.627,0.037,0.93l0.198,0.704l0.205,3.607c0.029,0.508,0.245,0.963,0.58,1.299l0.15,2.504	c0.062,1.033,0.901,1.848,1.935,1.88c0.021,0.001,0.041,0.001,0.062,0.001c1.008,0,1.862-0.752,1.984-1.759l0.406-3.343	c0.01-0.08,0.015-0.161,0.015-0.242l0-0.884l0.24-0.565c0.106-0.249,0.161-0.517,0.16-0.788l-0.008-3.864	c0.049-0.015,0.098-0.032,0.148-0.051c0.031,0.004,0.084,0.012,0.168,0.032c0.118,0.028,0.235,0.059,0.352,0.09	c0.059,0.015,0.118,0.031,0.177,0.046c0.34,0.259,0.759,0.414,1.209,0.435c0.033,0.518,0.263,0.98,0.614,1.316l-0.006,0.873	c-0.001,0.172,0.02,0.344,0.063,0.511l0.17,0.663l0.022,2.292c0,0.036,0.002,0.073,0.004,0.109l0.302,4.668	c0.068,1.046,0.932,1.863,1.98,1.871c0.005,0,0.011,0,0.016,0c1.042,0,1.91-0.8,1.993-1.84l0.203-2.536	c0.462-0.339,0.775-0.874,0.813-1.488l0.374-5.976c0.319,0.2,0.614,0.285,0.731,0.318c0.121,0.035,0.245,0.058,0.37,0.069	c0.025,0.01,0.049,0.019,0.075,0.028c0.032,0.012,0.065,0.022,0.097,0.032c0.405,0.393,0.836,0.547,1.175,0.601	c0.44,0.227,0.935,0.363,1.387,0.363c0.041,0,0.082-0.001,0.123-0.003c0.056,0.032,0.109,0.061,0.16,0.088	c0.313,0.169,0.666,0.258,1.021,0.258c0.592,0,1.169-0.247,1.584-0.678c0.081-0.084,0.155-0.174,0.221-0.269	c0.158-0.007,0.298-0.028,0.415-0.053c0.039,0.002,0.079,0.003,0.118,0.003c0.069,0,0.138-0.004,0.207-0.011	c0.085,0.037,0.171,0.072,0.246,0.1c0.393,0.148,0.763,0.22,1.131,0.22c0.245,0,0.487-0.033,0.72-0.097	c0.181,0.054,0.396,0.095,0.637,0.098c0.012,0.006,0.023,0.011,0.035,0.017c0.316,0.153,0.599,0.219,0.768,0.258	c0.203,0.047,0.384,0.068,0.562,0.068c0.042,0,0.083-0.001,0.124-0.003c0.147,0.118,0.331,0.234,0.557,0.322	c0.246,0.096,0.467,0.13,0.646,0.144c0.049,0.015,0.13,0.044,0.198,0.074c0.256,0.114,0.537,0.174,0.818,0.174	c0.076,0,0.148-0.004,0.216-0.012c0.005,0.001,0.011,0.001,0.016,0.002c0.07,0.007,0.149,0.012,0.219,0.012	c0.467,0,1.143-0.152,1.723-0.875c0.356-0.393,0.54-0.926,0.52-1.455C64.119,39.972,63.614,39.076,62.753,38.727z M2.559,25.417	c-0.006,0-0.011,0-0.017,0c-0.011,0.003-0.022,0.004-0.034,0.004c-0.158,0-0.43-0.209-0.498-0.391	c-0.043-0.115,0.06-0.313,0.229-0.313c0.01,0,0.021,0.001,0.031,0.002c0.227,0.032,0.425,0.107,0.505,0.364	C2.856,25.341,2.815,25.417,2.559,25.417z M56.983,38.906c0.048-0.005,0.095-0.007,0.141-0.007c0.338,0,0.645,0.123,0.949,0.305	c-0.049,0.033-0.071,0.099-0.144,0.116c-0.065,0.015-0.138,0.022-0.215,0.022c-0.311,0-0.685-0.111-0.807-0.254	C56.813,38.979,56.883,38.916,56.983,38.906z M10.084,25.035c0.025-0.074,0.091-0.184,0.204-0.184	c0.115,0.012,0.115,0.109,0.12,0.273c0.002,0.084,0.028,0.134,0.055,0.184c-0.033,0.006-0.064,0.008-0.094,0.008	C10.166,25.316,10.03,25.195,10.084,25.035z M3.392,24.679c0.189-0.097,0.254-0.169,0.407-0.254	c0.044-0.024,0.093-0.035,0.143-0.035c0.161,0,0.332,0.114,0.367,0.273c0.111,0.51-0.231,0.946-0.739,0.946	c-0.002,0-0.004,0-0.006,0c-0.241-0.002-0.426-0.174-0.504-0.457C2.986,24.885,3.231,24.762,3.392,24.679z M4.636,27.67	c-0.145,0.106-0.273,0.145-0.392,0.145c-0.251,0-0.463-0.177-0.712-0.286c-0.276-0.121-0.35-0.371-0.27-0.666	c0.041-0.152,0.029-0.324,0.116-0.455c0.069-0.102,0.221-0.151,0.346-0.186c0.064-0.018,0.136-0.101,0.199-0.101	c0.001,0,0.002,0,0.003,0c0.106,0.005,0.202,0.122,0.3,0.234c0.021,0.024,0.047,0.029,0.073,0.029c0.019,0,0.039-0.003,0.058-0.003	c0.022,0,0.043,0.003,0.061,0.017c0.171,0.131,0.231,0.307,0.387,0.472c0.095,0.11,0.138,0.189,0.133,0.425	C4.931,27.689,4.778,27.566,4.636,27.67z M8.915,30.221c-0.193,0.21-0.475,0.261-0.745,0.261c-0.017,0-0.033,0-0.05-0.001	c-0.344-0.008-0.445-0.092-0.392-0.598c0.005-0.044,0.043-0.144,0.348-0.144c0.012,0,0.024,0,0.037,0c0.003,0,0.006,0,0.009,0	c0.151,0,0.13-0.094,0.228-0.094c0,0,0,0,0,0c0.112,0,0.365,0.026,0.478,0.223c0.071,0.124,0.239,0.104,0.328,0.155	C9.081,30.094,9.032,30.094,8.915,30.221z M21.523,33.67c-0.286-0.137-0.507-0.201-0.472-0.312c0.013-0.042,0.044-0.06,0.088-0.06	c0.241,0,0.878,0.543,1.157,0.813C22.128,34.003,21.796,33.8,21.523,33.67z M30.173,36.48c-0.102,0.001-0.238,0.141-0.238,0.141	l-0.199-0.003l-0.257,0.239l-0.147-0.005l-0.098,0.098l0.026-0.141c0,0,0.274-0.25,0.304-0.295c0.064-0.098,0.105-0.418,0.105-0.418	s0.098,0.031,0.232,0.031l0.119-0.235l0.181,0.262l0.025,0.22c0,0,0.307,0.174,0.241,0.225c-0.002,0.001-0.004,0.002-0.007,0.002	c-0.037,0-0.159-0.121-0.283-0.121C30.174,36.48,30.174,36.48,30.173,36.48z M49.933,40.169c-0.048,0-0.12-0.051-0.215-0.192	c0,0,0.306,0.002,0.287,0.108C49.997,40.134,49.973,40.169,49.933,40.169z M50.992,40.506c-0.211,0-0.589-0.165-0.743-0.335	c0.028-0.001,0.056-0.002,0.083-0.002c0.313,0,0.559,0.092,0.805,0.263C51.124,40.484,51.069,40.506,50.992,40.506z M52.296,40.848	c-0.024,0-0.049-0.006-0.072-0.018c-0.217-0.117-0.433-0.245-0.626-0.398c-0.22-0.121-0.03-0.412-0.159-0.437	c0.047-0.042,0.091-0.109,0.183-0.109c0.04,0,0.088,0.013,0.15,0.045c0.112,0.06,0.217,0.139,0.334,0.185	c0.326,0.12,0.311,0.134,0.33,0.389c0.003,0.037,0.057,0.098,0.059,0.145C52.499,40.752,52.398,40.848,52.296,40.848z M58.94,40.506	c-0.025,0-0.053-0.003-0.083-0.01c-0.124-0.029-0.252-0.057-0.366-0.112c-0.24-0.116-0.474-0.231-0.744-0.231	c-0.04,0-0.081,0.003-0.122,0.008c-0.009,0.001-0.018,0.002-0.027,0.002c-0.1,0-0.211-0.064-0.309-0.11	c-0.122-0.057-0.242-0.091-0.362-0.091c-0.115,0-0.229,0.031-0.346,0.101c-0.119,0.071-0.24,0.099-0.362,0.099	c-0.141,0-0.284-0.038-0.425-0.091c-0.194-0.073-0.575-0.255-0.575-0.255s-0.065-0.003-0.153-0.003c-0.137,0-0.332,0.006-0.43,0.039	c0.004-0.107-0.01-0.251-0.142-0.251c-0.017,0-0.035,0.002-0.056,0.007c-0.184,0.044-0.098,0.148-0.024,0.21	c-0.13,0.012-0.279,0.084-0.413,0.084c-0.01,0-0.02,0-0.03-0.001c-0.141-0.013-0.261-0.122-0.401-0.298	c-0.057-0.072-0.148-0.168-0.231-0.18c-0.003,0-0.006-0.001-0.009-0.001c-0.046,0-0.078,0.056-0.143,0.059c0,0-0.001,0-0.001,0	c-0.062,0-0.207-0.172-0.319-0.187c-0.219-0.03-0.386-0.135-0.509-0.179c-0.157-0.055-0.282-0.064-0.346-0.064	c-0.031,0-0.048,0.002-0.048,0.002s-0.195-0.122-0.293-0.157c-0.087-0.031-0.152-0.049-0.199-0.049	c-0.104,0-0.127,0.083-0.137,0.281c0.022,0.258-0.099,0.348-0.169,0.495c-0.004,0.009-0.024,0.018-0.053,0.018	c-0.042,0-0.104-0.018-0.164-0.08c0.003-0.025,0.006-0.05,0.009-0.074c0.076-0.051,0.182-0.087,0.221-0.159	c0.041-0.077,0.053-0.143,0.028-0.231c-0.013-0.045-0.037-0.154-0.104-0.176c-0.003-0.001-0.006-0.001-0.009-0.001	c-0.044,0-0.149,0.069-0.193,0.069c-0.003,0-0.005,0-0.008-0.001c-0.047-0.013-0.076-0.126-0.134-0.126	c-0.013,0-0.027,0.005-0.043,0.019c-0.09,0.074-0.03,0.153-0.016,0.223c0.047,0.225-0.063,0.399-0.276,0.409	c-0.006,0-0.013,0-0.019,0c-0.114,0-0.183-0.05-0.152-0.189c0.014-0.063,0.028-0.126,0.04-0.19c0.04-0.209-0.042-0.322-0.042-0.322	s-0.692-0.238-0.886-0.273c-0.016-0.003-0.033-0.004-0.05-0.004c-0.101,0-0.205,0.049-0.224,0.106	c-0.074,0.224-0.029,0.274,0.086,0.424c0.025,0.033,0.058,0.078,0.098,0.103c0.106,0.067,0.207,0.123,0.112,0.28	c-0.071,0.118-0.151,0.194-0.272,0.194c-0.031,0-0.064-0.005-0.101-0.015c-0.194-0.07-0.263-0.133-0.573-0.139	c-0.097-0.028-0.203-0.065-0.275-0.132c-0.253-0.23-0.574-0.296-0.906-0.296c-0.002,0-0.003,0-0.005,0c0,0,0,0,0,0	c-0.082,0-0.167-0.065-0.214-0.129c-0.158-0.213-0.28-0.263-0.519-0.27c-0.184-0.006-0.462,0.005-0.644-0.015	c-0.015,0.001-0.031,0.001-0.048,0.001c-0.148,0-0.326-0.035-0.326-0.035l-0.028-0.181l-0.369-0.018l0.138,1.222l-0.457,7.307	l-0.128-5.292l-0.071-0.012l-0.117,0.465v3.187l-0.323,0.957l-0.375,4.684l-0.302-4.668l-0.025-2.535l-0.231-0.898l0.009-1.369	l0.139-0.543l-0.001-2.407l-0.228-0.646c0,0,0,0-0.001,0c-0.007,0-0.056,0.002-0.218,0.043c-0.011,0.003-0.025,0.004-0.04,0.004	c-0.081,0-0.2-0.036-0.2-0.036l-0.074,2.62l-0.074-2.602c-0.183,0.103-0.268,0.16-0.382,0.248c-0.339,0.265-0.682,0.408-0.953,0.408	c-0.032,0-0.063-0.002-0.093-0.006c-0.019-0.003-0.036-0.004-0.054-0.004c-0.143,0-0.236,0.079-0.325,0.088	c-0.004,0-0.008,0.001-0.013,0.001c-0.05,0-0.11-0.025-0.124-0.059c-0.074-0.181-0.228-0.204-0.386-0.24	c-0.288-0.067-0.572-0.149-0.86-0.218c-0.224-0.054-0.449-0.091-0.672-0.091c-0.224,0-0.446,0.037-0.667,0.129	c-0.028,0.012-0.063,0.025-0.095,0.025c-0.016,0-0.031-0.003-0.044-0.012c-0.082-0.053-0.162-0.072-0.242-0.072	c-0.115,0-0.226,0.039-0.336,0.068c-0.053,0.014-0.098,0.02-0.137,0.02c-0.213,0-0.228-0.181-0.228-0.181l-0.086-0.078l-0.281,1.082	l0.01,4.94l-0.401,0.941l0.001,1.292l-0.406,3.343l-0.265-4.428l0.035-2.538l-0.26-0.702c0,0-0.169,2.759-0.24,3.872l-0.217-3.825	l-0.257-0.914l0.163-0.826l0.01-2.702l-0.139-0.057c0,0-0.172-0.479-0.291-0.479c-0.119,0-1.079-0.058-1.079-0.058	s-0.7,0.215-1.025,0.348c-0.096,0.039-0.17,0.049-0.244,0.049c-0.08,0-0.161-0.012-0.271-0.012c-0.028,0-0.098,0.068-0.18,0.126	c-0.069,0.049-0.134,0.077-0.197,0.077c-0.065,0-0.126-0.03-0.186-0.097c-0.157-0.177-0.302-0.182-0.32-0.182	c-0.001,0-0.002,0-0.002,0s-0.265,0.106-0.304,0.106c-0.001,0-0.002,0-0.003,0c-0.104-0.024-0.209-0.051-0.307-0.094	c-0.012-0.005,0.002-0.148,0.002-0.148l0.244-0.129l0.163,0.058l0.097,0.076l0.15-0.027l0.134,0.086c0,0,0.066-0.013,0.101-0.013	c0.005,0,0.01,0,0.013,0.001c0,0,0,0,0,0c0.017,0,0.046-0.27,0.046-0.27l0.034,0.295c0.012,0.003,0.024,0.004,0.034,0.004	c0.131,0,0.16-0.19,0.16-0.28c0-0.126-0.077-0.265-0.077-0.266l-0.062-0.021l-0.098,0.106l-0.087-0.168l-0.257-0.167l-0.406-0.017	l-0.291-0.522l-0.224-0.435c-0.109,0-0.184-0.002-0.243-0.002c-0.03,0-0.056,0-0.081,0.002c-0.001,0-0.003,0-0.004,0	c-0.087,0-0.187-0.135-0.187-0.135s-0.123,0.108-0.354,0.108c-0.019,0-0.039-0.001-0.059-0.002l-0.076,1.347	c0,0,0.316,0.051,0.326,0.123c0.008,0.058-0.064,0.15-0.144,0.15s-0.134-0.092-0.134-0.092l-0.069-0.01l-0.378,5.424l-0.043-5.572	l-0.285-0.104l-0.119,0.556l-0.011,4.966l-0.379,1.222l-0.008,1.597l0.135,0.541l0.005,0.906l-0.175,0.64l-0.018,2.37L27.257,53	l-0.18-2.436l-0.185-0.503l0.009-4.116l-0.089-0.778c0,0-0.111,2.538-0.148,3.484l-0.283-4.121l0.033-2.703l-0.242-0.981	l-0.004-2.17l-0.378-1.098l0-1.985c0,0-0.404-0.108-0.56-0.237c-0.145-0.12-0.334-0.298-0.334-0.298l-0.505,0.013l-1.621-0.864	l-0.222-0.026l-0.275-0.412l0.308,0.312c0,0,1.127,0.241,1.537,0.306c0.045,0.007,0.096,0.014,0.143,0.014	c0.123,0,0.222-0.049,0.146-0.277c-0.008-0.024,0.013-0.062,0.028-0.089c0.113-0.207,0.146-0.375-0.17-0.392	c-0.027-0.001-0.115-0.054-0.121-0.076c-0.026-0.096-0.046-0.255-0.148-0.255c-0.003,0-0.005,0-0.008,0	c-0.014,0.001-0.028,0.002-0.042,0.002c-0.197,0-0.407-0.103-0.531-0.14c-0.039-0.011-0.078-0.015-0.112-0.015	c-0.07,0-0.122,0.016-0.122,0.016s-0.133-0.142-0.196-0.159c-0.044-0.012-0.08-0.014-0.112-0.014c-0.033,0-0.062,0.003-0.093,0.003	c-0.012,0-0.024,0-0.037-0.002c-0.025-0.002-0.049-0.003-0.071-0.003c-0.269,0-0.318,0.166-0.409,0.404	c-0.328-0.441-0.472-0.283-0.708-0.4c-0.123-0.061-0.354-0.141-0.354-0.141s-0.176,0.078-0.266,0.15	c-0.023,0.019-0.071,0.029-0.115,0.029c-0.036,0-0.068-0.007-0.079-0.021c-0.106-0.142-0.253-0.23-0.446-0.23	c-0.027,0-0.055,0.002-0.084,0.005c-0.019,0.002-0.038,0.003-0.057,0.003c-0.169,0-0.32-0.086-0.32-0.086l-0.015,0.493l-0.265,0.795	l-0.071,1.718l-0.146,0.705l-0.042-3.696l-0.102-0.005l0.009,4.986l0.044,0.081l0.009,0.602l-0.228,0.53l-0.025,0.555l0.086,0.181	l-0.345,6.83l-0.06-4.659l-0.091-0.193l-0.101,2.905l-0.289,0.905l0.026,2.296l-0.283,0.589v0.864l0.039,0.142l-0.245,2.911	l-0.188-3.184l-0.206-1.038l-0.018-2.018l-0.145-0.49l0.003-2.227l-0.222-1.525l-0.001-3.343l-0.141-0.518l0.012-2.008l-0.117-0.487	l-0.379,6.642l-0.068-8.261l-0.15-0.143c0,0-0.003-0.984-0.003-1.431c-0.098,0.017-0.193,0.025-0.286,0.025	c-0.431,0-0.815-0.165-1.206-0.331c-0.219-0.093-0.777-0.041-0.94-0.124c-0.168-0.085-0.354-0.225-0.354-0.225	s-0.098,0.01-0.22,0.01c-0.109,0-0.236-0.008-0.331-0.038c-0.397-0.053-0.48-0.195-0.654-0.365	c-0.567-0.552-1.205-0.926-2.003-0.984c-0.259-0.019-0.456-0.147-0.644-0.331C9.21,29.592,8.886,29.46,8.52,29.46	c-0.066,0-0.133,0.004-0.202,0.013c-0.029,0.004-0.059,0.005-0.089,0.005c-0.081,0-0.164-0.013-0.237-0.04	c-0.359-0.133-0.713-0.28-1.067-0.425c-0.132-0.054-0.387-0.19-0.387-0.19s-0.112,0.061-0.169,0.097	c-0.007,0.004-0.016,0.006-0.027,0.006c-0.034,0-0.082-0.018-0.104-0.039c-0.246-0.234-0.477-0.471-0.501-0.851	c-0.009-0.136,0.024-0.211-0.032-0.267c-0.184-0.185-0.416-0.406-0.414-0.664c0.002-0.292-0.016-0.691-0.007-0.983	c0.016-0.488,0.241-0.829,0.65-1.113c0.208-0.145,0.413-0.233,0.646-0.254c0.047-0.004,0.095-0.006,0.143-0.006	c0.238,0,0.488,0.043,0.704,0.055c0.7,0.036,0.53,0.105,0.713,0.13c0.077,0.01,0.175,0.015,0.27,0.015	c0.069,0,0.137-0.002,0.193-0.007c0.132-0.005,0.248-0.008,0.35-0.008c0.648,0,0.772,0.112,1.219,0.425	c0.471,0.33,1.02,0.123,1.288,0.312c0.087,0.062,0.315,0.338,0.593,0.432c0.421,0.143,0.544,0.111,0.801,0.179	c0.589,0.156,0.834,0.196,1.109,0.196c0.085,0,0.173-0.004,0.275-0.009l0.041,0.067l0.176,0.024l0.135-0.108l1.328,0.026	l-0.08-1.207l-0.268-0.836l0.366-1.481l0-1.741l0.052-0.042l0.003-0.193l-0.053-0.065c0.001-0.106,0.001-0.175,0.001-0.175	l0.055-0.009l0.003-0.293l-0.071-0.069l0.009-0.627l0.352-0.767l0.039-0.715l0.468-0.371c0,0,0.247-0.047,0.335-0.081	c0.355-0.135,0.545-0.243,0.545-0.243c0.702-0.059,1.063-0.229,1.063-0.229l0.135-0.453c0.055,0.18,0.188,0.68,0.188,0.68	l0.259-0.098c0,0,0.152,0.279,0.308,0.299l0.111-0.466l0.168,0.055l0.14-1.502l0.219,2.688l0.093,0.21c0,0,0.064-0.454,0.082-0.545	c0.016,0.251,0.131,1.01,0.131,1.01s0.336,0.628,0.435,0.944c0,0-0.109,0.347-0.197,0.873c-0.118,0.15-0.324,0.293-0.305,0.725	c0.017,0.4,0.076,0.73,0.076,0.73l-0.169,0.199l0.021,2.998l-0.48,1.805l1.241,0.105l0.445,0.206l0.579-0.017l1.116,0.274	l0.205-0.046l0.443,0.262l0.275-0.025c0,0,0.039,0.051,0.082,0.067l-0.057,0.245l0.078,0.104l0.218,0.025l0.43,0.358l0.264-0.136	l-0.167-3.516l0.152-0.282l-0.002-1.039l-0.474-1.36l-0.012-2.487l-0.128-0.148l-0.038,1.254l-0.183-2.118l-0.215-0.341	l-0.001-0.475l-0.056-0.03c0.001-0.095,0.054-0.373,0.054-0.373l-0.086-0.11l0.143-1.402c0,0,0.239-0.089,0.447-0.605	c0.178-0.441,0.352-0.592,0.621-0.819c0.172-0.145,0.319-0.322,0.496-0.459c0.2-0.154,0.25-0.329,0.634-0.417	c0.318-0.073,0.554-0.416,0.554-0.416l0.114,0.131l0.265-0.78l0.185-0.063L27.835,11l0.146,2.545l0.124,0.019l0.12-0.888	l0.162,1.617l0.099,0.036l0.034-0.49l0.131-0.169l0.094-1.031l0.111,1.422l0.063,0.199l0.063-0.225l0.074,0.736l0.249,0.15	l0.003,0.293l0.249,0.384c0,0,0.037,0.461,0.031,0.582c-0.005,0.12-0.012,0.359-0.012,0.359l0.088,0.391l-0.144,0.248l-0.007,0.152	l0.058,0.048l0.011,1.397l-0.148,0.711l0.061,0.387l-0.258,4.661l-0.049-3.439l-0.176,0.79L29,25.295l0.23,0.761l0.016,3.8	c0,0,0.135-0.067,0.318-0.067c0.009,0,0.018,0,0.027,0c0.282,0.01,0.521,0.237,0.936,0.308c0.135,0.095,0.33,0.32,0.48,0.391	c0.042,0.02,0.326,0.077,0.326,0.077l0.291,0.268c0.045-0.004,0.087-0.006,0.127-0.006c0.21,0,0.37,0.051,0.532,0.131	c0.367,0.095,0.678,0.258,0.882,0.579c0.139,0.219,0.328,0.347,0.462,0.424c0.101,0.058,0.47,0.065,0.644,0.065	c0.056,0,0.092-0.001,0.092-0.001l-0.008-3.613l-0.312-1.182l-0.027-2.654l0.34-0.674l-0.03-2.242l-0.099-0.331l0.006-0.798	l-0.085,0.107c0,0-0.061,2.492-0.09,3.364c-0.013,0-0.243-4.569-0.243-4.569l-0.209-0.424c0,0,0.194-0.529,0.194-0.617	c0-0.215-0.083-0.315-0.083-0.315l-0.028-0.792c0,0,0.16-0.34,0.229-0.768c0.048-0.295,0.05-0.648,0.05-0.648l0.589-0.71l0.015-0.53	l0.243-0.281l0.123-2.311l0.126,1.74l0.255,0.932l0.123-0.131v-0.605l0.136,0.24l0.048-1.004l0.058,0.886l0.204,0.375l0.276-0.072	l0.597,0.349l0.222-0.007l0.12-0.426l0.129,0.661l0.197,0.134l0.068,0.221c0,0,0.276,0.166,0.328,0.221	c0.136,0.201,0.394,0.911,0.394,0.911l0.066,0.822c-0.427,0.906-0.473,1.351-0.472,1.9c0.002,0.647-0.115,2.071-0.115,2.071	l0.258,1.181l-0.185,7.438l-0.152,0.695c0,0-0.004-3.55-0.004-5.146l-0.053-0.097l-0.205,0.944l-0.005,4.902l-0.106,0.902	l-0.013,0.911c0,0,0.129,0.101,0.317,0.141c0.317,0.247,0.681,0.351,1.082,0.351c0.139,0,0.282-0.013,0.43-0.036	c0.039-0.006,0.08-0.002,0.12-0.005c0.015-0.001,0.03-0.001,0.045-0.001c0.193,0,0.333,0.087,0.405,0.285	c0.071,0.195,0.206,0.25,0.409,0.26c0.233,0.012,0.334-0.013,0.564,0.039c0.155,0.034,0.178,0.207,0.591,0.207	c0.267,0.012,0.485,0.123,0.702,0.264c0.165,0.107,0.565,0.294,0.565,0.294l-0.071-2.641l0.049-2.436l-0.13-0.571L42.24,29.05	l-0.15,1.717l-0.346-2.322l-0.017-2.75l0.205-0.717l0.001-1.094l-0.166-0.822l0.022-0.326l-0.102-0.058l-0.006-0.211l-0.047-0.077	l0.297-1.524l0.409-0.36l0.334-0.847l0.081,0.32l0.083,0.053l0.125-2.061l0.257,1.575l0.188,0.162l0.148-0.069l0.201-2.763	l0.162,2.563l0.111-1.038l0.086,1.244l0.099-0.128l0.083,0.156l0.108,0.006l0.075,0.131l0.18-0.009	c0.154,0.156,0.378,0.206,0.474,0.273c0.153,0.107,0.363,0.138,0.363,0.138s0.304,0.465,0.441,0.784	c0.109,0.253,0.267,0.787,0.267,0.787l-0.04,0.889l0.102,0.321l-0.259,0.699l0.302,0.44l-0.369,8.267l-0.145-5.423l-0.083,0.321	l0.01,1.493l-0.33,0.757c0,0-0.016,2.536-0.002,3.688c0.005,0.398-0.016,0.623-0.016,0.623l-0.369,0.911l-0.006,0.611l0.285,0.156	c0.145-0.025,0.294-0.039,0.443-0.039c0.319,0,0.636,0.067,0.91,0.247c0.148,0.097,0.338,0.137,0.514,0.183	c0.096,0.026,0.146,0.032,0.186,0.032c0.036,0,0.065-0.005,0.113-0.005c0.034,0,0.077,0.002,0.14,0.011	c0.076,0.01,0.326,0.157,0.442,0.157c0.014,0,0.027-0.002,0.036-0.007c0.09-0.048,0.173-0.29,0.304-0.313	c0.006-0.001,0.013-0.002,0.02-0.002c0.125,0,0.251,0.205,0.252,0.297c0.001,0.09,0.008,0.254,0.008,0.254s0.317,0.178,0.472,0.178	c0.001,0,0.003,0,0.004,0c0.665,0,1.015,0.246,1.578,0.352c0.408,0.077,0.588,0.1,0.988,0.21c0.142,0.039,0.399,0.064,0.534,0.184	c0.056,0.05,0.037,0.178,0.327,0.261c0.158,0.045,0.625,0.041,0.924,0.217c0.51,0.301,0.874,0.415,1.234,0.415	c0.043,0,0.086-0.002,0.129-0.005c0.023-0.002,0.046-0.003,0.07-0.003c0.128,0,0.268,0.025,0.366,0.09	c0.373,0.249,0.782,0.356,1.216,0.403c0.097,0.011,0.238,0.085,0.333,0.112c-0.001,0.015-0.164,0.096-0.345,0.096	c-0.002,0-0.004,0-0.005,0c-0.133-0.001-0.277-0.083-0.36-0.083c-0.001,0-0.002,0-0.003,0c-0.054,0.001-0.101,0.002-0.141,0.002	c-0.307,0-0.285-0.04-0.553-0.096c-0.033-0.007-0.06-0.01-0.083-0.01c-0.092,0-0.12,0.054-0.204,0.156	c-0.092,0.112-0.234,0.204-0.359,0.204c-0.015,0-0.029-0.001-0.044-0.004c-0.152-0.029-0.281-0.193-0.545-0.231	c-0.616-0.089-0.485-0.238-0.989-0.43c-0.132-0.05-0.512-0.086-0.655-0.095c-0.569,0-0.338-0.246-0.667-0.271	c-0.328-0.025-0.337-0.234-0.472-0.279c-0.024-0.008-0.044-0.011-0.064-0.011c-0.065,0-0.128,0.031-0.316,0.031	c-0.027,0-0.057-0.001-0.089-0.002c-0.009,0-0.018,0-0.027,0c-0.018,0-0.037,0-0.057,0c-0.055,0-0.113-0.004-0.147-0.032	c-0.482-0.392-1.08-0.299-1.628-0.411c-0.552-0.028-0.679-0.18-0.97-0.192c-0.005,0-0.009,0-0.014,0	c-0.207,0-0.564,0.176-0.564,0.176s-0.017,0.171,0.006,0.241c0.075,0.231,0.263,0.354,0.542,0.354c0.053,0,0.109-0.004,0.168-0.013	c0.086-0.013,0.17-0.028,0.248-0.028c0.132,0,0.249,0.042,0.333,0.209c0.011,0.022,0.054,0.036,0.084,0.039	c0.04,0.007,0.084,0.009,0.127,0.009c0.031,0,0.062-0.001,0.093-0.001c0.042,0,0.082,0.001,0.119,0.008	c0.123,0.024,0.218,0.089,0.33,0.112c2.366,0.475,2.365,0.727,2.883,0.727c0.298,0,0.398,0.031,0.85,0.031	c0.065,0,0.181,0.274,0.989,0.462c0.194,0.064,0.267,0.112,0.969,0.112c0.154,0,0.708,0.352,0.987,0.364c0.005,0,0.011,0,0.017,0	c0.071,0,0.2-0.017,0.203-0.108c0.002-0.081-0.081-0.161-0.145-0.191c-0.151-0.071-0.318-0.107-0.474-0.166	c-0.081-0.031-0.159-0.074-0.227-0.127c-0.028-0.022-0.053-0.056-0.038-0.127c0.006-0.03,0.033-0.038,0.062-0.038	c0.04,0,0.084,0.016,0.084,0.016S56,39.399,56.69,39.504c0.189,0.08,0.658,0.416,0.854,0.477c0.013,0,0.026,0,0.039,0	c0.491,0,0.651,0.078,0.774,0.183c0.066,0.056,0.131,0.075,0.266,0.1c0.033,0.006,0.073,0.008,0.116,0.008	c0.095,0,0.205-0.01,0.285-0.01c0.074,0,0.123,0.009,0.114,0.041C59.123,40.426,59.061,40.506,58.94,40.506z M58.924,39.679	c-0.161,0-0.309-0.098-0.517-0.247c-0.018-0.013-0.029-0.043-0.029-0.043c0.359,0.015,0.585,0.135,0.835,0.195	C59.105,39.65,59.012,39.679,58.924,39.679z M61.733,41.218c-0.003,0-0.006,0-0.01-0.001c-0.044-0.005-0.088-0.075-0.155-0.075	c-0.001,0-0.001,0-0.002,0c-0.115,0.003-0.255,0.074-0.284,0.074c-0.001,0-0.003,0-0.004-0.001	c-0.204-0.091-0.542-0.214-0.781-0.236c-0.034-0.003-0.112-0.003-0.15-0.018c-0.077-0.03-0.106-0.148-0.183-0.192	c-0.129-0.073-0.249-0.095-0.269-0.153c-0.094-0.272-0.227-0.303-0.44-0.358c-0.035-0.009-0.083-0.05-0.089-0.093	c-0.003-0.022,0.007-0.061,0.029-0.061c0.034-0.001,0.068-0.002,0.102-0.002c0.469,0,0.901,0.113,1.24,0.47	c0.041,0.043,0.155,0.052,0.279,0.052c0.078,0,0.16-0.003,0.23-0.003c0.054,0,0.101,0.002,0.134,0.009	c0.138,0.033,0.231,0.077,0.489,0.148c0.055,0.015,0.128,0.199,0.11,0.217C61.894,41.075,61.826,41.218,61.733,41.218z M61.923,40.581c-0.433,0-1.142-0.171-1.142-0.171l-0.032-0.091l0.342,0.072l0.152-0.122c0,0,0.538,0.221,0.757,0.31	C61.976,40.581,61.95,40.581,61.923,40.581z M25.14,33.872c0.064,0.06,0.077,0.09,0.093,0.201c0.002,0.013-0.048,0.15-0.05,0.165	c-0.018,0.156-0.021,0.374-0.187,0.374c-0.021,0-0.044-0.003-0.07-0.011c-0.145-0.041-0.299-0.228-0.297-0.457	c0.002-0.177,0.09-0.281,0.187-0.323c0.029-0.012,0.065-0.018,0.104-0.018C25.002,33.802,25.093,33.828,25.14,33.872z M28.372,35.512l0.021,0.991l-0.157-0.051l-0.007-1.052L28.372,35.512z M46.835,37.481c0.013,0.083-0.012,0.2-0.066,0.258	c-0.022,0.024-0.067,0.031-0.116,0.031c-0.04,0-0.083-0.005-0.118-0.01c-0.306-0.042-0.608-0.132-0.918-0.14	c-0.194-0.005-0.359-0.005-0.453-0.005c-0.055,0-0.086,0-0.086,0c-0.107-0.175-0.05-0.509-0.05-0.509	c0.211,0.109,0.421,0.141,0.631,0.141c0.235,0,0.469-0.04,0.703-0.059c0.029-0.002,0.056-0.003,0.082-0.003	C46.682,37.186,46.804,37.283,46.835,37.481z M42.489,36.345c0.002,0.054,0.003,0.182-0.005,0.274	c-0.297,0.034-0.592,0.074-0.887,0.074c-0.323,0-0.644-0.048-0.963-0.203c-0.05-0.024-0.108-0.033-0.169-0.033	c-0.124,0-0.264,0.035-0.388,0.052c-0.125,0.017-0.242,0.082-0.365,0.114c-0.044,0.011-0.1,0.021-0.161,0.021	c-0.073,0-0.154-0.014-0.23-0.054c0.008-0.29-0.058-0.411-0.129-0.419c-0.144-0.016-0.327-0.047-0.327-0.047l0.032-0.343	c-0.189-0.022-0.296-0.065-0.657-0.065c-0.008,0-0.015,0-0.023,0c-0.119-0.121-0.321-0.177-0.45-0.349	c-0.146-0.258-0.267-0.394-0.482-0.52c-0.047-0.027-0.077-0.084-0.114-0.127c0.013-0.02,0.026-0.04,0.039-0.06	c0.064,0.025,0.141,0.036,0.191,0.078c0.084,0.073,0.171,0.156,0.221,0.254c0.207,0.406,0.537,0.553,0.932,0.553	c0.057,0,0.116-0.003,0.176-0.009c0.002,0,0.003,0,0.005,0c0.338,0,0.476-0.115,0.476-0.115s0.311,0.063,0.458,0.123	c0.011,0.005,0.025,0.007,0.039,0.007c0.012,0,0.023-0.002,0.032-0.007c0.119-0.067,0.233-0.093,0.344-0.093	c0.225,0,0.437,0.109,0.653,0.212c0.112,0.054,0.262,0.01,0.382,0.053c0.093,0.034,0.056,0.204,0.229,0.204	c0.014,0,0.03-0.001,0.048-0.004c0.01-0.045,0.024-0.11,0.039-0.181c0.032,0.003,0.064-0.003,0.075,0.01	c0.102,0.124,0.203,0.248,0.297,0.378c0.079,0.11,0.164,0.174,0.289,0.174c0.03,0,0.062-0.004,0.097-0.011	c0.112-0.024,0.185-0.049,0.23-0.049C42.468,36.236,42.486,36.263,42.489,36.345z"/></svg>